HIERARCHY
ROOT hip
{
  OFFSET 0.0 0.0 0.0
  CHANNELS 6 Xposition Yposition Zposition Zrotation Yrotation Xrotation
  JOINT torso
  {
    OFFSET 0.0 0.0 0.0
    CHANNELS 3 Zrotation Xrotation Yrotation
    JOINT neck
    {
      OFFSET -31.42098999999993 328.8025209999999 74.3554680000002
      CHANNELS 3 Zrotation Xrotation Yrotation
      JOINT head
      {
        OFFSET 3.3519900000001144 303.81732099999994 206.53942900000015
        CHANNELS 3 Zrotation Xrotation Yrotation
        End Site
        {
          OFFSET 0.0 0.0 0.0
        }
      }
    }
    JOINT left_collar
    {
      OFFSET -31.42098999999993 328.8025209999999 74.3554680000002
      CHANNELS 3 Zrotation Xrotation Yrotation
      JOINT left_upper_arm
      {
        OFFSET -124.490479 -8.162841999999841 8.226441000000023
        CHANNELS 3 Zrotation Xrotation Yrotation
        JOINT left_forearm
        {
          OFFSET -253.595764 -1.5758060000000569 105.0729980000001
          CHANNELS 3 Zrotation Xrotation Yrotation
          JOINT left_hand
          {
            OFFSET -269.48803699999996 0.1478270000000066 -55.346191999999974
            CHANNELS 3 Zrotation Xrotation Yrotation
            End Site
            {
              OFFSET 0.0 0.0 0.0
            }
          }
        }
      }
    }
    JOINT right_collar
    {
      OFFSET -31.42098999999993 328.8025209999999 74.3554680000002
      CHANNELS 3 Zrotation Xrotation Yrotation
      JOINT right_upper_arm
      {
        OFFSET 162.02484099999998 0.46441600000002836 2.2303470000001653
        CHANNELS 3 Zrotation Xrotation Yrotation
        JOINT right_forearm
        {
          OFFSET 240.01246700000004 -25.835875999999985 121.34179699999959
          CHANNELS 3 Zrotation Xrotation Yrotation
          JOINT right_hand
          {
            OFFSET 252.48539699999992 18.910399999999868 -67.53466800000001
            CHANNELS 3 Zrotation Xrotation Yrotation
            End Site
            {
              OFFSET 0.0 0.0 0.0
            }
          }
        }
      }
    }
  }
}
MOTION
Frames: 16
Frame Time: 0.01
-216.08496976716933 285.0585303763688 705.3288501642932 0.46196448038062893 0.1022064503235561 -39.80588478163494 0.6630236169878652 3.638736638257586 0.22067132740820278 -9.392770137754416 -6.529624352985556 6.745241981980853 0.0 0.0 0.0 1.9331003473919433 0.3683394157800585 -2.905244680629891 13.471574804937108 9.823274998902592 -26.01002367212588 -3.4536127966246584 0.5055904810479787 -6.445774498372338 0.0 0.0 0.0 0.308811378108079 -0.030047340396402535 4.633045657809679 -48.40467257658939 8.5452341706592 -29.413546703793877 -48.97830890675713 -9.974053694740707 8.945865915847007 0.0 0.0 0.0
-216.06736858111807 285.03950071123825 705.3640300320066 0.42815910545778574 -0.030189383143695254 -39.892221206079235 0.689008859141818 3.768762259823504 0.22896931697100065 -9.411489377866783 -6.538792448353361 6.759057211446933 0.0 0.0 0.0 1.9438389573003612 0.3642337440534768 -2.8439049553615465 13.46379334062206 9.818079908254525 -26.01220199619757 -3.446858067749815 0.5050408789276223 -6.431493837520202 0.0 0.0 0.0 0.3184018546788303 -0.030902890354785623 4.692267208213563 -48.40664405170995 8.546708859484841 -29.411953951122005 -48.98117985172568 -9.977048170174609 8.939592201472177 0.0 0.0 0.0
-216.04221241318163 285.0183223557813 705.4024446063422 0.39401473262313447 -0.1668306725682218 -39.98113660336467 0.7153324144826522 3.9029187259220506 0.23769351309337053 -9.430340565428244 -6.548491368373522 6.772995433631482 0.0 0.0 0.0 1.954664793775527 0.359972474178294 -2.7807319950837788 13.456171044326108 9.812811683277388 -26.013367400377874 -3.4387699068691195 0.5043204213119875 -6.416320420578444 0.0 0.0 0.0 0.32803044197953973 -0.031777014257079815 4.752620784275953 -48.4081531319263 8.54772864533606 -29.410921810961998 -48.98435695385608 -9.979431807744804 8.935083331895928 0.0 0.0 0.0
-216.01041962157336 284.99494341866176 705.4438553702205 0.3599621216841011 -0.30518424365746855 -40.071170095314706 0.741801349837573 4.038516077778099 0.24660731579817075 -9.44899188715856 -6.558314962562597 6.786799306825914 0.0 0.0 0.0 1.9653864455264036 0.35563957452799155 -2.716950280933289 13.448767257152275 9.807509566817181 -26.01349959752351 -3.4295402019828702 0.503448036547031 -6.400534467622095 0.0 0.0 0.0 0.33759466175881553 -0.032657773282491906 4.812980185024619 -48.40930091446417 8.548325703426825 -29.41044301776551 -48.98782474945003 -9.981177338077226 8.932401835803173 0.0 0.0 0.0
-215.97297838249935 284.96934158783887 705.4879535320076 0.3264159094664995 -0.44274938001019537 -40.160866145510454 0.7682229745866789 4.17289720509672 0.25547353952220414 -9.467117122120344 -6.567860525567257 6.800215459533503 0.0 0.0 0.0 1.9758231885485247 0.3513213829366317 -2.6537909603493492 13.441656186946798 9.802227234056335 -26.012598545637204 -3.41938730188355 0.5024474154791285 -6.384393888908542 0.0 0.0 0.0 0.3469991694227191 -0.03353310139587832 4.872230263456754 -48.41018903099528 8.548538472389197 -29.41049985955707 -48.99156408686046 -9.982275731962286 8.931560457534898 0.0 0.0 0.0
-215.9309211147055 284.941525842035 705.5343675005307 0.29377873574185337 -0.5771080807313114 -40.24880035525566 0.7943986411039372 4.303490971991551 0.2640611387698811 -9.484403435052027 -6.576737460591132 6.813000505852204 0.0 0.0 0.0 1.985807309648155 0.3471049827237681 -2.5924704520201898 13.43492139801192 9.797028987619408 -26.010685417634264 -3.4085478036144257 0.5013459494441913 -6.368130644784474 0.0 0.0 0.0 0.35615410473265247 -0.03439085457093808 4.9292843582900545 -48.41091782099601 8.548411567821645 -29.41106344626242 -48.99554989589849 -9.982735983220087 8.93252154490866 0.0 0.0 0.0
-215.8852996895866 284.9115368300111 705.5826715083113 0.2624449143106686 -0.7059707083340436 -40.333603462390236 0.820118603892979 4.427860402716138 0.2721513881005504 -9.500558464942273 -6.584575311963913 6.824926541946774 0.0 0.0 0.0 1.995186079966509 0.34307652445165276 -2.5341694020966035 13.428649987968958 9.79198567214493 -26.00780327724637 -3.3972681305941963 0.500173580516473 -6.351948269841213 0.0 0.0 0.0 0.36497339021417063 -0.03521887083912336 4.983100689493803 -48.411584612509756 8.547995618135523 -29.412093162724883 -48.99974908251017 -9.98258433892038 8.935197955250834 0.0 0.0 0.0
-215.83716228815348 284.8794459436169 705.6323951091065 0.23280280796745492 -0.8272158740485421 -40.41398304022618 0.8451586571026258 4.54374474061019 0.2795432525684128 -9.515316492251722 -6.591030948031024 6.8357859546836615 0.0 0.0 0.0 2.003823391735453 0.33931953350940613 -2.480012342463168 13.422926754627387 9.78717053407763 -26.004017489015677 -3.385796276789672 0.4989616226231153 -6.336020490070734 0.0 0.0 0.0 0.373373150380094 -0.036005046553488525 5.032697523123708 -48.41228212632832 8.547346994033745 -29.413536364254885 -49.00411871083986 -9.981863003486362 8.939455498015313 0.0 0.0 0.0
-215.7875324756492 284.8453532187842 705.6830333034375 0.20523540577408372 -0.9389238687572607 -40.488742563015045 0.8692789343309885 4.649094692382247 0.28605779894931954 -9.528443528532698 -6.595794733006541 6.845395418460776 0.0 0.0 0.0 2.0116010632487646 0.33591324695451324 -2.4310484246617055 13.417828641287738 9.782655235222036 -25.9994158538411 -3.3743740592299427 0.49774161055666116 -6.320490813235417 0.0 0.0 0.0 0.38127038800357393 -0.03673743320161954 5.077166954677117 -48.41309701184794 8.546527391633196 -29.415328388182196 -49.00860460996074 -9.980628356259583 8.945116883751123 0.0 0.0 0.0
-215.73739078144504 284.8093843000959 705.7340570617604 0.18011896959806636 -1.0394033714646829 -40.55679765887532 0.8922249065126272 4.742100626175488 0.2915416051585479 -9.539741235011425 -6.598595582194798 6.853599003398622 0.0 0.0 0.0 2.0184198038661236 0.33293102553040566 -2.388233630307693 13.413419722936965 9.778506200929263 -25.994108415085208 -3.3632301709951973 0.4965442284470351 -6.305472949495108 0.0 0.0 0.0 0.38858200945089305 -0.037404357173300755 5.11568718436069 -48.41410851741543 8.545603226709323 -29.4173929564646 -49.01314051759515 -9.978948739191623 8.951967089686166 0.0 0.0 0.0
-215.68765883723066 284.77168677541675 705.7849240139997 0.1578199164339042 -1.1272115177486632 -40.61718949790713 0.9137303406950665 4.821213866080986 0.29586920553133644 -9.54904963811265 -6.599204847159229 6.860270364517957 0.0 0.0 0.0 2.024199820901909 0.33043888695424245 -2.3524148650713657 13.409746955973473 9.77478144747813 -25.98822684242622 -3.352574263022545 0.49539836051684355 -6.291051916777809 0.0 0.0 0.0 0.3952242509248768 -0.03799456270308986 5.1475331738595465 -48.41538729781992 8.544644806216256 -29.419643029198454 -49.01764784652724 -9.976901892497956 8.959759981151528 0.0 0.0 0.0
-215.6391859543325 284.7324262093174 705.8350890535402 0.13869026722576222 -1.2011677065112272 -40.66909538553038 0.933521834811998 4.885161539118295 0.2989446584556021 -9.556248671528165 -6.597439034985768 6.865314028870303 0.0 0.0 0.0 2.0288810542675986 0.3284942020656938 -2.3243162898250667 13.406836863115869 9.771527991504943 -25.981923278180364 -3.342592208333786 0.49433029551193 -6.2772856993772095 0.0 0.0 0.0 0.40111253441733336 -0.03849737680158125 5.172085620355034 -48.41699436518683 8.543725259758 -29.42198214192354 -49.02203612944302 -9.974572140322564 8.96822594757908 0.0 0.0 0.0
-215.5927379137867 284.6917821786634 705.8840145683098 0.12306202320259185 -1.2603617700169452 -40.711836758588866 0.9513245129290389 4.932955689941727 0.3007023453309113 -9.561258633545119 -6.5931614309492845 6.8686658438948305 0.0 0.0 0.0 2.0324230441312903 0.3271445857553864 -2.3045281224822625 13.404693270586156 9.768779902879652 -25.975368524299004 -3.333442621484576 0.49336310300509795 -6.264207355288675 0.0 0.0 0.0 0.4061617786872735 -0.03890289471688279 5.188838271303227 -48.41898019305902 8.542919232440413 -29.424306228735205 -49.026204165228165 -9.972047451309278 8.977080233993586 0.0 0.0 0.0
-215.5489876971704 284.649944558355 705.9311799756069 0.11124078540641985 -1.3041573068417818 -40.744884893770944 0.9668685014343968 4.9638975575927855 0.3011071146639166 -9.564039696772886 -6.5862827559447235 6.870292689027087 0.0 0.0 0.0 2.0348044615209995 0.32642700188228935 -2.2934979921797933 13.403296164443477 9.766557027017821 -25.96874945761228 -3.3252546265506933 0.4925161862127436 -6.251827502323895 0.0 0.0 0.0 0.4102871963470896 -0.03920218465852391 5.197403703236298 -48.421383983171026 8.54230135575016 -29.426505906559587 -49.030041858497235 -9.969416512295018 8.986031597559315 0.0 0.0 0.0
-215.50850789209304 284.60711024005326 705.9760902198288 0.10349887415091295 -1.3321910571612399 -40.76786470566595 0.9798958602457727 4.977577980872194 0.30015387940990607 -9.564590637784141 -6.57676103522551 6.870191577679243 0.0 0.0 0.0 2.0360223501785337 0.32636708885431986 -2.2915247910061507 13.402601690673052 9.764864376001485 -25.962265586402594 -3.3181267970410664 0.4918050037202387 -6.240137144568696 0.0 0.0 0.0 0.41340560967306544 -0.03938751016756467 5.197517759731109 -48.424233098893666 8.541944521033907 -29.428469179298443 -49.03343271865433 -9.96676594993718 8.994790915007489 0.0 0.0 0.0
-215.4717645490189 284.56348040489075 706.0182829081526 0.10006816293991912 -1.3443691823114465 -40.78055702112024 0.9901676917454749 4.973874861296138 0.29786676324659017 -9.562946964664626 -6.564600876584693 6.868388286347977 0.0 0.0 0.0 2.0360911361997416 0.3269787027139798 -2.2987548777937623 13.402543287326314 9.763692169049099 -25.95612470468653 -3.3121271384448265 0.4912409433038559 -6.229110814239247 0.0 0.0 0.0 0.41543730707429816 -0.03945256705305993 5.189042867270463 -48.42754266098187 8.541917981945865 -29.430084513127287 -49.03625696369115 -9.964177814813347 9.00307941017084 0.0 0.0 0.0
